<?xml version="1.0" encoding="UTF-8"?><svg width="20" height="20" viewBox="0 0 20 20" version="1.1" xmlns="http://www.w3.org/2000/svg"><title>Combined Shape Copy 5</title><g stroke="none" stroke-width="1" fill="none" fill-rule="evenodd"><g fill="#20A052"><g><g><path d="M0 10C0 4.477 4.477 0 10 0s10 4.477 10 10-4.477 10-10 10S0 15.523 0 10zm14.772 4.98c1.382-1.381.708-2.276-.276-3.087-.74-.609-1.299-.598-2.025-.064-.13.097-.521.456-.521.456a.779.779 0 0 1-.633.164s-.693-.169-2.16-1.615c-1.437-1.46-1.606-2.15-1.606-2.15a.777.777 0 0 1 .164-.633s.36-.391.456-.522c.535-.725.545-1.285-.063-2.024-.812-.986-1.706-1.66-3.088-.277-.526.526-.694 1.336-.494 2.06 0 0 .402 2.489 3.05 5.136 2.648 2.648 5.136 3.05 5.136 3.05.724.2 1.534.032 2.06-.494z"/></g></g></g></g></svg>