<svg xmlns="http://www.w3.org/2000/svg" width="120" height="120" viewBox="0 0 120 120"><g fill="none" fill-rule="evenodd" stroke="#20A052" stroke-width="1.5"><circle cx="60" cy="60" r="59.25"/><path stroke-linecap="round" stroke-linejoin="round" d="M61.787 82.989l-9.768 8.869-4.597 4.176-11.893-13.045zM78.085 68.183L94.93 52.884 77.243 33.477l-4.187-4.588L55.72 44.633M51.438 92.438l3.759 4.009 14.818-13.458"/><path stroke-linecap="round" stroke-linejoin="round" d="M76.813 32.875l4.027-3.572 21.87 23.991-24.647 22.519"/><path stroke-linecap="round" stroke-linejoin="round" d="M72.95 44.632H26.025c-2.823 0-5.134 2.306-5.134 5.125v28.106c0 2.82 2.31 5.126 5.134 5.126H72.95c2.824 0 5.134-2.306 5.134-5.126V49.757c0-2.819-2.31-5.125-5.134-5.125z"/><path stroke-linecap="round" stroke-linejoin="round" d="M20.891 61.878h57.194v-8.326H20.891z"/></g></svg>