<svg xmlns="http://www.w3.org/2000/svg" width="70" height="50" viewBox="0 0 70 50"><g fill="none" fill-rule="evenodd"><path d="M-10-20h80v80h-80z"/><g stroke="#20A052" stroke-linecap="round" stroke-linejoin="round" stroke-width="1.5"><path d="M54.717 1.223H6.16C3.238 1.223.847 3.614.847 6.537v29.136c0 2.923 2.391 5.313 5.314 5.313h48.556c2.922 0 5.312-2.39 5.312-5.313V6.537c0-2.923-2.39-5.314-5.312-5.314z"/><path d="M.847 18.47H60.03v-8H.847z"/><path fill="#F8F8F8" d="M69 39c0 5.523-4.477 10-10 10s-10-4.477-10-10a9.99 9.99 0 0 1 4.409-8.292A9.953 9.953 0 0 1 58.999 29C64.524 29 69 33.477 69 39z"/><path d="M69 31.353l-1.589 1.571-9.125 9.017-4.58-4.563"/></g></g></svg>