<svg xmlns="http://www.w3.org/2000/svg" width="55" height="80" viewBox="0 0 55 80"><g fill="none" fill-rule="evenodd"><path d="M-13 0h80v80h-80z"/><path d="M1.03 71.907s2.454-6.36 5.728-8.09c3.274-1.73 6.989-3.335 8.94-3.89C17.65 59.37 18.594 59 18.594 59s1.511 2.47 3.777 3.644c2.267 1.173 5.163 2.47 8.31 1.235 3.148-1.235 5.225-2.841 5.603-3.397.378-.556 4.66-.926 8.563 1.235 3.903 2.162 7.176 3.953 8.247 5.806 1.07 1.852 1.825 3.396 1.888 4.137.063.741-.062 1.297-.062 1.297s-8.437 5.126-13.725 5.435c-5.288.309-14.984 1.05-21.216.247-6.233-.803-15.424-3.52-17.376-5.311-1.952-1.791-1.574-1.42-1.574-1.42zm8.988-43.891s-.409-8.049 2.687-11.755c3.095-3.706 3.797-5.095 5.9-5.732 2.102-.637 3.328-1.505 3.328-1.505s-.175-4.17.935-5.385c1.11-1.216 3.972-2.896 5.374-2.606 1.401.29 3.971.753 4.73 2.316.76 1.563.994 3.07.994 3.88s-.234 1.91-.234 1.91 4.848 1.696 6.542 3.532c1.694 1.837 4.732 4.922 5.257 8.454.525 3.532.467 7.875.467 7.875s-1.169-4.112-2.862-5.443c-1.694-1.332-2.395-2.953-5.55-3.243-3.153-.289-4.964-.058-6.658-.694-1.694-.637-2.745-1.622-2.745-1.622s-1.752 1.216-3.212 1.564c-1.46.347-5.14.173-6.718.868-1.577.695-3.562.58-4.322 1.853-.76 1.274-1.694 1.621-2.278 3.069-.584 1.448-1.635 2.664-1.635 2.664z"/><path stroke="#20A052" stroke-linecap="round" stroke-linejoin="round" stroke-width="1.5" d="M1 72s7.018 7 26.774 7S54 72.387 54 72.387M27.699 55c9.959 0 16.971-9.097 18.19-24.966C47.11 14.166 38.027 8 27.7 8c-10.327 0-18.8 6.974-17.582 22.034C11.337 45.094 17.74 55 27.699 55z"/><path stroke="#20A052" stroke-linecap="round" stroke-linejoin="round" stroke-width="1.5" d="M12 42s-5.993-.245-6.893-5.822C4.179 30.435 9.587 29 9.587 29M22.063 9s-1.12-8 6.104-8 5.699 8 5.699 8M10 28s1.46-4.425 4.233-6.39c2.773-1.967 8.26-1.998 8.26-1.998s2.823.158 5.623-1.86c.641-.46 1.256-1.055 1.884-1.752m-2 2s1.525 1.353 4.394 1.747c2.87.394 4.382.21 5.752.492 1.372.283 3.01.997 4.19 2.056C43.514 23.353 45.742 25.923 46 29M19 53v6m17 0v-7m8-11s5.993-.246 6.893-5.822c.927-5.743-4.48-7.178-4.48-7.178M19 59S2.1 61.628 1 72m35-13s16.927 2.514 18 13M18.75 58.5v12.003M19 70h18m-1-.03V58m-23.5 2.5v17M42 61v17M19 59s1.369 5 8.272 5C34.175 64 36 59 36 59"/></g></svg>