<svg xmlns="http://www.w3.org/2000/svg" width="120" height="120" viewBox="0 0 120 120"><g fill="none" fill-rule="evenodd" stroke="#20A052" stroke-width="1.5"><circle cx="60" cy="60" r="59.25"/><g stroke-linecap="round" stroke-linejoin="round"><path d="M89.447 82.09h1.72c2.388 0 4.342-2.129 4.342-4.73V34.12c0-2.603-1.954-4.732-4.342-4.732H26.383c-2.389 0-4.343 2.13-4.343 4.731v43.24c0 2.602 1.954 4.732 4.343 4.732h36.293m26.77-10.703h6.063m-73.469 0h40.64m-.004 10.703H50.283c0 2.602-1.954 4.731-4.343 4.731h-4.892v5.014H62.675"/><path d="M89.447 98.126V58.848c0-2.603-1.954-4.732-4.343-4.732H67.02c-2.388 0-4.343 2.13-4.343 4.732v39.277c0 2.603 1.955 4.732 4.343 4.732h18.085c2.389 0 4.343-2.129 4.343-4.731z"/><path d="M89.447 72.201v19.635H62.676V72.201M62.676 72.201V60.355h26.771v11.846M73.1 96.388h5.922"/></g></g></svg>