<svg width="80" height="80" xmlns="http://www.w3.org/2000/svg"><g stroke="#20A052" stroke-width="1.5" fill="none" fill-rule="evenodd" stroke-linecap="round" stroke-linejoin="round"><path d="M46.662 67.344c-.003 0-7.488 8.53-7.488 8.53-.003.002-7.116-8.84-7.116-8.84-.002-.002-10.75 3.644-10.75 3.644-.003 0-1.742-11.214-1.742-11.214 0-.003-11.132-2.22-11.132-2.22-.003 0 4.098-10.582 4.098-10.582.001-.002-8.53-7.488-8.53-7.488-.003-.002 8.84-7.116 8.84-7.116.002-.001-3.644-10.75-3.644-10.75 0-.003 11.214-1.742 11.214-1.742.002-.001 2.22-11.132 2.22-11.132 0-.003 10.581 4.098 10.581 4.098.003 0 7.49-8.53 7.49-8.53 0-.002 7.115 8.84 7.115 8.84.002.002 10.75-3.644 10.75-3.644.002-.001 1.742 11.214 1.742 11.214 0 .003 11.132 2.22 11.132 2.22.003 0-4.098 10.582-4.098 10.582-.001.002 8.53 7.488 8.53 7.488.002.002-8.84 7.116-8.84 7.116-.003.001 3.644 10.75 3.644 10.75 0 .003-11.214 1.742-11.214 1.742-.003 0-2.22 11.132-2.22 11.132 0 .003-10.582-4.098-10.582-4.098z"/><path d="M63.937 39.938c0 13.255-10.744 24-24 24-13.254 0-23.998-10.745-23.998-24s10.744-24 23.999-24c13.255 0 24 10.745 24 24z"/><path d="M35.793 50.776L54.018 32.55l-3.923-3.923-14.302 14.301-5.511-5.511-3.924 3.921z"/></g></svg>